<?xml version="1.0" encoding="UTF-8"?>
<svg width="20px" height="19px" viewBox="0 0 20 19" version="1.1" xmlns="http://www.w3.org/2000/svg" xmlns:xlink="http://www.w3.org/1999/xlink">
    <title>Group 7</title>
    <g id="Page-1" stroke="none" stroke-width="1" fill="none" fill-rule="evenodd">
        <g id="Group-7" transform="translate(1.149330, 0.266462)" stroke="#1D1D1B">
            <path d="M8.47766216,0.239418919 C3.93239189,0.361918919 0.241783784,4.16793243 0.236574303,8.70941892 C0.230905405,13.1766486 3.7905,16.8823919 8.11158108,17.1794189 C12.9155676,17.5105 17.2328649,13.5275946 17.1770541,8.61813514 C17.1236081,3.9777973 13.1827973,0.112662162 8.47766216,0.239418919 Z" id="Stroke-1"></path>
            <path d="M6.43106081,7.27626351 C6.45281757,5.70079054 7.68585811,4.49565541 9.02720946,4.49754507 C10.3141689,4.49896622 11.4303851,5.61092568 11.4994392,6.64957432 C11.5755878,7.79984459 10.36525,8.86261486 10.2134257,8.99268243 C9.72910135,9.4079527 9.29207432,9.55930405 9.0054527,10.1368041 C8.79308784,10.5653176 8.77937162,10.9928851 8.79876351,11.2813986" id="Stroke-3"></path>
            <path d="M8.87836486,13.0290811 C8.86795946,13.4320541 8.85755405,13.8345541 8.84667568,14.2370541" id="Stroke-5"></path>
        </g>
    </g>
</svg>