<svg xmlns="http://www.w3.org/2000/svg" width="29" height="29" viewBox="0 0 29 29">
  <path fill="#17191C" d="M24,19 L24,21.5 C24,22.3284271 23.3284271,23 22.5,23 L20,23 L20,22 L22.5,22 C22.7761424,22 23,21.7761424 23,21.5 L23,19 L24,19 Z M6,19 L6,21.5 C6,21.7761424 6.22385763,22 6.5,22 L9,22 L9,23 L6.5,23 C5.67157288,23 5,22.3284271 5,21.5 L5,19 L6,19 Z M19.5,9 C20.3284271,9 21,9.67157288 21,10.5 L21,18.5 C21,19.3284271 20.3284271,20 19.5,20 L9.5,20 C8.67157288,20 8,19.3284271 8,18.5 L8,10.5 C8,9.67157288 8.67157288,9 9.5,9 L19.5,9 Z M19.5,10 L9.5,10 C9.22385763,10 9,10.2238576 9,10.5 L9,18.5 C9,18.7761424 9.22385763,19 9.5,19 L19.5,19 C19.7761424,19 20,18.7761424 20,18.5 L20,10.5 C20,10.2238576 19.7761424,10 19.5,10 Z M22.5,6 C23.3284271,6 24,6.67157288 24,7.5 L24,10 L23,10 L23,7.5 C23,7.22385763 22.7761424,7 22.5,7 L20,7 L20,6 L22.5,6 Z M9,6 L9,7 L6.5,7 C6.22385763,7 6,7.22385763 6,7.5 L6,10 L5,10 L5,7.5 C5,6.67157288 5.67157288,6 6.5,6 L9,6 Z"/>
</svg>
