<svg xmlns="http://www.w3.org/2000/svg" width="29" height="29" viewBox="0 0 29 29">
  <path fill="#17191C" d="M12.5,6 C16.0898509,6 19,8.91014913 19,12.5 C19,14.1148687 18.4111063,15.592194 17.4363556,16.7289391 L21.3535534,20.6464466 L20.6464466,21.3535534 L16.7289391,17.4363556 C15.592194,18.4111063 14.1148687,19 12.5,19 C8.91014913,19 6,16.0898509 6,12.5 C6,8.91014913 8.91014913,6 12.5,6 Z M12.5,7 C9.46243388,7 7,9.46243388 7,12.5 C7,15.5375661 9.46243388,18 12.5,18 C15.5375661,18 18,15.5375661 18,12.5 C18,9.46243388 15.5375661,7 12.5,7 Z"/>
</svg>
