<svg xmlns="http://www.w3.org/2000/svg" width="29" height="29" viewBox="0 0 29 29">
  <path fill="#17191C" d="M22,7 L8,7 C6.8954305,7 6,7.8954305 6,9 L6,21 C6,22.1045695 6.8954305,23 8,23 L22,23 C23.1045695,23 24,22.1045695 24,21 L24,9 C24,7.8954305 23.1045695,7 22,7 Z M7,21 L7,12 L10,12 L10,22 L8,22 C7.44771525,22 7,21.5522847 7,21 Z M23,21 C23,21.5522847 22.5522847,22 22,22 L11,22 L11,12 L23,12 L23,21 Z M7,11 L7,9 C7,8.44771525 7.44771525,8 8,8 L22,8 C22.5522847,8 23,8.44771525 23,9 L23,11 L7,11 Z"/>
</svg>
