<?xml version="1.0" encoding="UTF-8"?>
<svg width="18px" height="17px" viewBox="0 0 18 17" version="1.1" xmlns="http://www.w3.org/2000/svg" xmlns:xlink="http://www.w3.org/1999/xlink">
    <title>desktop</title>
    <g id="Page-1" stroke="none" stroke-width="1" fill="none" fill-rule="evenodd">
        <path d="M15,0.158718786 C16.6568542,0.158718786 18,1.50186454 18,3.15871879 L18,10.1587188 C18,11.815573 16.6568542,13.1587188 15,13.1587188 L9.5,13.1587188 L9.5,15.1587188 L13,15.1587188 L13,16.1587188 L5,16.1587188 L5,15.1587188 L8.5,15.1587188 L8.5,13.1587188 L3,13.1587188 C1.34314575,13.1587188 0,11.815573 0,10.1587188 L0,3.15871879 C0,1.50186454 1.34314575,0.158718786 3,0.158718786 L15,0.158718786 Z M15.1492623,1.16420452 L15,1.15871879 L3,1.15871879 C1.9456382,1.15871879 1.08183488,1.97459658 1.00548574,3.00945644 L1,3.15871879 L1,10.1587188 C1,11.2130806 1.81587779,12.0768839 2.85073766,12.153233 L3,12.1587188 L15,12.1587188 C16.0543618,12.1587188 16.9181651,11.342841 16.9945143,10.3079811 L17,10.1587188 L17,3.15871879 C17,2.10435699 16.1841222,1.24055366 15.1492623,1.16420452 Z" id="desktop" fill="#000000" fill-rule="nonzero"></path>
    </g>
</svg>