<?xml version="1.0" encoding="UTF-8"?>
<svg width="23px" height="30px" viewBox="0 0 23 30" version="1.1" xmlns="http://www.w3.org/2000/svg" xmlns:xlink="http://www.w3.org/1999/xlink">
    <title>Artboard</title>
    <g id="Artboard" stroke="none" stroke-width="1" fill="none" fill-rule="evenodd">
        <g id="Group-3" transform="translate(5.000000, 2.500000)" fill="#000000" fill-rule="nonzero">
            <g id="Group-14-Copy" transform="translate(0.500000, 0.250000)">
                <path d="M9,0 C10.6568542,0 12,1.34314575 12,3 L12,14 C12,15.6568542 10.6568542,17 9,17 L3,17 C1.34314575,17 0,15.6568542 0,14 L0,3 C0,1.34314575 1.34314575,0 3,0 L9,0 Z M9,1 L3,1 C1.9456382,1 1.08183488,1.81587779 1.00548574,2.85073766 L1,3 L1,14 C1,15.0543618 1.81587779,15.9181651 2.85073766,15.9945143 L3,16 L9,16 C10.0543618,16 10.9181651,15.1841222 10.9945143,14.1492623 L11,14 L11,3 C11,1.9456382 10.1841222,1.08183488 9.14926234,1.00548574 L9,1 Z M6,12 C6.55228475,12 7,12.4477153 7,13 C7,13.5522847 6.55228475,14 6,14 C5.44771525,14 5,13.5522847 5,13 C5,12.4477153 5.44771525,12 6,12 Z" id="mobile"></path>
            </g>
        </g>
    </g>
</svg>