<?xml version="1.0" encoding="UTF-8"?>
<svg width="29px" height="29px" viewBox="0 0 29 29" version="1.1" xmlns="http://www.w3.org/2000/svg" xmlns:xlink="http://www.w3.org/1999/xlink">
    <title>undo</title>
    <defs>
        <path d="M18.0766238,5.51724138 L17.2606238,6.02424138 L19.5336238,9.68824138 L17.1066238,9.12424138 C15.1906238,8.68124138 13.2126238,8.96724138 11.5366238,9.94024138 C9.83062377,10.9302414 8.64762377,12.5182414 8.20762377,14.4102414 C7.56762377,17.1632414 8.42762377,19.8202414 10.5056238,21.5172414 L11.1136238,20.7722414 C9.32562377,19.3132414 8.58862377,17.0162414 9.14462377,14.6272414 C9.91862377,11.2962414 13.3946238,9.24324138 16.8886238,10.0612414 L19.3146238,10.6242414 L15.6596238,12.9112414 L16.1676238,13.7252414 L21.2116238,10.5722414 L18.0766238,5.51724138 Z" id="path-1"></path>
    </defs>
    <g id="Symbols" stroke="none" stroke-width="1" fill="none" fill-rule="evenodd">
        <g id="Double-Top-Bar-/-Primitives-/-Undo+Redo" transform="translate(-47.000000, -7.000000)">
            <g id="undo" transform="translate(47.000000, 7.000000)">
                <g id="Icon" transform="translate(0.000000, -0.000000)">
                    <mask id="mask-2" fill="white">
                        <use xlink:href="#path-1"></use>
                    </mask>
                    <use id="Mask" fill="#000000" xlink:href="#path-1"></use>
                    <g id="Group" mask="url(#mask-2)" fill="#0E0F11">
                        <g id="Color">
                            <rect id="D1" x="0" y="0" width="29" height="29"></rect>
                        </g>
                    </g>
                </g>
            </g>
        </g>
    </g>
</svg>