<?xml version="1.0" encoding="UTF-8"?>
<svg width="16px" height="16px" viewBox="0 0 16 16" version="1.1" xmlns="http://www.w3.org/2000/svg" xmlns:xlink="http://www.w3.org/1999/xlink">
    <title>Combined Shape</title>
    <g id="Zoom-Out-View" stroke="none" stroke-width="1" fill="none" fill-rule="evenodd">
        <path d="M5.9973884,9.98550117 L5.9973884,14.4855012 L4.9973884,14.4855012 L4.9983884,11.688 L0.707106781,16 L8.27782287e-13,15.2928932 L4.2863884,10.986 L1.4973884,10.9855012 L1.4973884,9.98550117 L5.9973884,9.98550117 Z M14.5,9.98550117 L14.5,10.9855012 L11.711,10.986 L15.9973884,15.2928932 L15.2902816,16 L10.999,11.688 L11,14.4855012 L10,14.4855012 L10,9.98550117 L14.5,9.98550117 Z M15.2902816,-0.0144988344 L15.9973884,0.692607947 L11.711,4.99950117 L14.5,5 L14.5,6 L10,6 L10,1.5 L11,1.5 L10.999,4.29750117 L15.2902816,-0.0144988344 Z M0.707106781,-0.0144988344 L4.9983884,4.29750117 L4.9973884,1.5 L5.9973884,1.5 L5.9973884,6 L1.4973884,6 L1.4973884,5 L4.2863884,4.99950117 L-8.17124146e-14,0.692607947 L0.707106781,-0.0144988344 Z" id="Combined-Shape" fill="#000000" fill-rule="nonzero"></path>
    </g>
</svg>