<?xml version="1.0" encoding="UTF-8"?>
<svg width="20px" height="16px" viewBox="0 0 20 16" version="1.1" xmlns="http://www.w3.org/2000/svg" xmlns:xlink="http://www.w3.org/1999/xlink">
    <title>zoom</title>
    <g id="Symbols" stroke="none" stroke-width="1" fill="none" fill-rule="evenodd">
        <g id="Double-Top-Bar-/-Madefor" transform="translate(-121.000000, -65.000000)" stroke="#000000">
            <g id="Group-20" transform="translate(0.000000, 49.000000)">
                <g id="Group" transform="translate(21.000000, 0.000000)">
                    <g id="Search-Field-Copy" transform="translate(83.000000, 0.000000)">
                        <g id="zoom" transform="translate(17.000000, 16.000000)">
                            <g id="Group-5" transform="translate(2.000000, 0.000000)">
                                <g id="Group-2">
                                    <line x1="0.5" y1="0.5" x2="5.5" y2="5.5" id="Line"></line>
                                    <polyline id="Path" points="5.5 1.5 5.5 5.5 1.5 5.5"></polyline>
                                </g>
                                <g id="Group-2-Copy-2" transform="translate(3.000000, 13.000000) scale(1, -1) translate(-3.000000, -13.000000) translate(0.000000, 10.000000)">
                                    <line x1="0.5" y1="0.5" x2="5.5" y2="5.5" id="Line"></line>
                                    <polyline id="Path" points="5.5 1.5 5.5 5.5 1.5 5.5"></polyline>
                                </g>
                                <g id="Group-2-Copy" transform="translate(13.000000, 3.000000) scale(-1, 1) translate(-13.000000, -3.000000) translate(10.000000, 0.000000)">
                                    <line x1="0.5" y1="0.5" x2="5.5" y2="5.5" id="Line"></line>
                                    <polyline id="Path" points="5.5 1.5 5.5 5.5 1.5 5.5"></polyline>
                                </g>
                                <g id="Group-2-Copy-3" transform="translate(13.000000, 13.000000) scale(-1, -1) translate(-13.000000, -13.000000) translate(10.000000, 10.000000)">
                                    <line x1="0.5" y1="0.5" x2="5.5" y2="5.5" id="Line"></line>
                                    <polyline id="Path" points="5.5 1.5 5.5 5.5 1.5 5.5"></polyline>
                                </g>
                            </g>
                        </g>
                    </g>
                </g>
            </g>
        </g>
    </g>
</svg>