<?xml version="1.0" encoding="UTF-8"?>
<svg width="16px" height="17px" viewBox="0 0 16 17" version="1.1" xmlns="http://www.w3.org/2000/svg" xmlns:xlink="http://www.w3.org/1999/xlink">
    <title>Combined Shape</title>
    <g id="Zoom-Out-View" stroke="none" stroke-width="1" fill="none" fill-rule="evenodd">
        <path d="M5.29028162,10.9855012 L5.9973884,11.6926079 L1.711,15.9995012 L4.5,16 L4.5,17 L1.05515596e-12,17 L1.05426778e-12,12.5 L1,12.5 L0.999,15.2975012 L5.29028162,10.9855012 Z M10.7071068,10.9855012 L14.9983884,15.2975012 L14.9973884,12.5 L15.9973884,12.5 L15.9973884,17 L11.4973884,17 L11.4973884,16 L14.2863884,15.9995012 L10,11.6926079 L10.7071068,10.9855012 Z M15.9973884,0.985501166 L15.9973884,5.48550117 L14.9973884,5.48550117 L14.9983884,2.688 L10.7071068,7 L10,6.29289322 L14.2863884,1.986 L11.4973884,1.98550117 L11.4973884,0.985501166 L15.9973884,0.985501166 Z M4.5,0.985501166 L4.5,1.98550117 L1.711,1.986 L5.9973884,6.29289322 L5.29028162,7 L0.999,2.688 L1,5.48550117 L-7.6453881e-13,5.48550117 L-7.64201723e-13,0.985501166 L4.5,0.985501166 Z" id="Combined-Shape" fill="#000000" fill-rule="nonzero"></path>
    </g>
</svg>